<svg width="22" height="19" viewBox="0 0 22 19" fill="none" xmlns="http://www.w3.org/2000/svg">
<path d="M21.4061 17.3312L20.0655 5.33124C20.026 4.96413 19.8517 4.62474 19.5763 4.3788C19.3009 4.13286 18.944 3.99787 18.5748 3.99999H15.4342C15.2537 2.95475 14.7098 2.00687 13.8985 1.32363C13.0871 0.640386 12.0605 0.265701 10.9998 0.265701C9.93913 0.265701 8.91252 0.640386 8.10119 1.32363C7.28985 2.00687 6.74594 2.95475 6.56546 3.99999H3.42483C3.05562 3.99787 2.69876 4.13286 2.42337 4.3788C2.14799 4.62474 1.97368 4.96413 1.93421 5.33124L0.593583 17.3312C0.570877 17.5419 0.592511 17.755 0.657095 17.9569C0.721678 18.1587 0.827782 18.3447 0.968583 18.5031C1.10891 18.66 1.28088 18.7854 1.47317 18.871C1.66546 18.9567 1.87371 19.0006 2.08421 19H19.9155C20.126 19.0006 20.3342 18.9567 20.5265 18.871C20.7188 18.7854 20.8908 18.66 21.0311 18.5031C21.1719 18.3447 21.278 18.1587 21.3426 17.9569C21.4072 17.755 21.4288 17.5419 21.4061 17.3312ZM7.99983 7.74999C7.99983 7.9489 7.92081 8.13966 7.78016 8.28032C7.63951 8.42097 7.44875 8.49999 7.24983 8.49999C7.05092 8.49999 6.86016 8.42097 6.7195 8.28032C6.57885 8.13966 6.49983 7.9489 6.49983 7.74999V6.24999C6.49983 6.05107 6.57885 5.86031 6.7195 5.71966C6.86016 5.579 7.05092 5.49999 7.24983 5.49999C7.44875 5.49999 7.63951 5.579 7.78016 5.71966C7.92081 5.86031 7.99983 6.05107 7.99983 6.24999V7.74999ZM8.09358 3.99999C8.25881 3.35468 8.63411 2.78271 9.16032 2.37426C9.68652 1.96581 10.3337 1.7441 10.9998 1.7441C11.666 1.7441 12.3131 1.96581 12.8393 2.37426C13.3656 2.78271 13.7409 3.35468 13.9061 3.99999H8.09358ZM15.4998 7.74999C15.4998 7.9489 15.4208 8.13966 15.2802 8.28032C15.1395 8.42097 14.9487 8.49999 14.7498 8.49999C14.5509 8.49999 14.3602 8.42097 14.2195 8.28032C14.0788 8.13966 13.9998 7.9489 13.9998 7.74999V6.24999C13.9998 6.05107 14.0788 5.86031 14.2195 5.71966C14.3602 5.579 14.5509 5.49999 14.7498 5.49999C14.9487 5.49999 15.1395 5.579 15.2802 5.71966C15.4208 5.86031 15.4998 6.05107 15.4998 6.24999V7.74999Z" fill="white"/>
</svg>
